# xmcd CD database file
#
# Track frame offsets:
#	150
#	12011
#	26170
#	41036
#	66298
#	87976
#	105530
#	118058
#	135384
#	147022
#	174914
#
# Disc length: 2642 seconds
#
# Revision: 0
# Processed by: cddbd v1.5PL3 Copyright (c) Steve Scherf et al.
# Submitted via: CDex 1.50beta10
#
DISCID=8c0a500b
DTITLE=Greg "Fingers" Taylor - Hi Fi Baby
DYEAR=2003
DGENRE=Blues
TTITLE0=Hi Fi Baby
TTITLE1=Hey Little Girl
TTITLE2=Olds 98 Blues
TTITLE3=Whisper
TTITLE4=I Want My Fleetwood Back
TTITLE5=Sleeping In The Ground
TTITLE6=Angel Child
TTITLE7=Fine Little Mama
TTITLE8=Cutie Named Judy
TTITLE9=It Ain't Easy
TTITLE10=2 X's 9
EXTD=YEAR: 2003
EXTT0=
EXTT1=
EXTT2=
EXTT3=
EXTT4=
EXTT5=
EXTT6=
EXTT7=
EXTT8=
EXTT9=
EXTT10=
PLAYORDER=
